PathFileType	4	(X/Y/Z)	C:\Users\Basilio\Documents\Thesis Gigler\squatting_fais\c3dfiles\058\SLS_front_pre2\markers_experimental.trc
DataRate	CameraRate	NumFrames	NumMarkers	Units	OrigDataRate	OrigDataStartFrame	OrigNumFrames
200.000000	200.000000	4	61	mm	200.000000	0	1252
Frame#	Time	FHD			LBHD			RBHD			C7			T10			CLAV			LSHO			LUUPA			LMUPA			LDUPA			LLEP			LMEP			LUL			LRFIN			RSHO			RUPA1			RMUPA			RDUPA			RLEP			RMEP			RRAD			RUL			RUFIN			LASI			RASI			USACR			LSACR			RSACR			LTHI1			LTHI2			LTHI3			LTHI4			LLFC			LMFC			LTIB1			LTIB2			LTIB3			LTIB4			LLMAL			LMMAL			LHEE			LMT1			LMT2			LMT5			RTHI			RTHI2			RTHI3			RTHI4			RLFC			RMFC			RTIB2			RTIB3			RTIB4			RLMAL			RMMAL			RHEE			RMT1			RMT2			RMT5			RTIB1			LRAD			
		X1	Y1	Z1	X2	Y2	Z2	X3	Y3	Z3	X4	Y4	Z4	X5	Y5	Z5	X6	Y6	Z6	X7	Y7	Z7	X8	Y8	Z8	X9	Y9	Z9	X10	Y10	Z10	X11	Y11	Z11	X12	Y12	Z12	X13	Y13	Z13	X14	Y14	Z14	X15	Y15	Z15	X16	Y16	Z16	X17	Y17	Z17	X18	Y18	Z18	X19	Y19	Z19	X20	Y20	Z20	X21	Y21	Z21	X22	Y22	Z22	X23	Y23	Z23	X24	Y24	Z24	X25	Y25	Z25	X26	Y26	Z26	X27	Y27	Z27	X28	Y28	Z28	X29	Y29	Z29	X30	Y30	Z30	X31	Y31	Z31	X32	Y32	Z32	X33	Y33	Z33	X34	Y34	Z34	X35	Y35	Z35	X36	Y36	Z36	X37	Y37	Z37	X38	Y38	Z38	X39	Y39	Z39	X40	Y40	Z40	X41	Y41	Z41	X42	Y42	Z42	X43	Y43	Z43	X44	Y44	Z44	X45	Y45	Z45	X46	Y46	Z46	X47	Y47	Z47	X48	Y48	Z48	X49	Y49	Z49	X50	Y50	Z50	X51	Y51	Z51	X52	Y52	Z52	X53	Y53	Z53	X54	Y54	Z54	X55	Y55	Z55	X56	Y56	Z56	X57	Y57	Z57	X58	Y58	Z58	X59	Y59	Z59	X60	Y60	Z60	X61	Y61	Z61	

1	0	-288.2844238281251	1810.327392578125	-610.9876708984376	-440.6216735839845	1754.887329101563	-689.2550048828126	-272.1596374511719	1818.81201171875	-752.2716064453126	-449.4059448242189	1594.956787109375	-702.7979125976564	-449.9492797851564	1288.87841796875	-693.7829589843751	-290.5502929687501	1554.477416992188	-688.4404296875001	-301.6524963378907	1606.39892578125	-843.1921386718752	-157.7328338623047	1523.695434570313	-965.1763916015627	-128.6674041748047	1560.415649414063	-946.2647705078127	-88.04882049560548	1522.228393554688	-968.219909667969	-10.66088676452637	1522.481201171875	-961.6040649414065	-6.680094242095949	1465.639526367188	-928.914245605469	260.1668090820313	1550.610595703125	-929.028015136719	354.5818176269532	1545.952270507813	-849.2440185546877	-318.5231628417969	1601.669921875	-533.3507690429689	-163.8089599609375	1504.598999023438	-424.1306457519532	-138.6510925292969	1542.808959960938	-445.6369628906251	-94.3847122192383	1510.57373046875	-423.8229980468751	-27.39727401733399	1499.561157226563	-429.7867126464845	-20.47088623046875	1443.011596679688	-481.428924560547	241.9510345458985	1526.749389648438	-517.5548095703126	243.2257080078126	1537.846069335938	-436.4526672363282	336.1787109375001	1545.840698242188	-504.5207519531251	-280.2933044433594	1107.471557617188	-852.741638183594	-252.9294586181641	1079.390991210938	-614.4136962890626	-459.3087158203126	1167.189208984375	-693.4100952148439	-470.8977966308595	1138.138671875	-722.7526245117189	-457.2162475585939	1132.674438476563	-667.1693115234376	-249.0486450195313	852.8198242187502	-940.436950683594	-196.204330444336	786.5516357421877	-935.559997558594	-156.7713165283203	796.838073730469	-904.7310791015627	-206.0927276611329	727.7610473632814	-934.233825683594	-168.6419982910157	634.7702636718751	-929.5811767578127	-160.8992767333985	616.2239990234376	-803.6433105468752	-70.24732971191408	525.4798583984376	-895.2290039062502	-97.29795074462893	479.6501770019532	-961.4321289062502	-60.66393280029298	482.6574096679689	-933.6536254882815	-29.80995750427247	405.9613037109376	-915.355895996094	-11.76082801818848	203.5177612304688	-954.4635009765627	2.468990564346314	213.9524230957032	-862.363464355469	-62.49449539184572	146.921859741211	-909.414978027344	152.3287658691407	193.3774108886719	-878.2278442382815	159.1416473388672	203.9442901611329	-923.018981933594	121.4420547485352	177.5962677001953	-981.3659667968752	-353.3898925781251	863.9892578125002	-558.7595214843751	-315.3234558105469	809.7658691406252	-562.7929687500001	-282.5034484863282	810.9419555664065	-564.8912963867189	-341.2948608398438	732.5501708984376	-583.1384887695314	-332.9832763671876	552.8475952148439	-614.4847412109376	-302.1451416015626	549.8585815429689	-748.9793701171876	-330.7809143066407	273.2263488769532	-655.9086914062501	-295.4682312011719	267.9771423339844	-688.4032592773439	-308.8126831054688	226.3342437744141	-727.2341308593751	-372.1900024414063	118.9764480590821	-694.1908569335939	-342.3244628906251	144.1017761230469	-781.0779418945315	-438.1535034179689	102.6991348266602	-756.9478759765626	-229.1968994140626	57.93449020385744	-771.4829711914065	-221.7692108154297	59.42899703979494	-718.5270385742189	-271.3132019042969	28.7134075164795	-666.1952514648439	nan	nan	nan	nan	nan	nan	
2	0.005	-288.4081115722657	1810.34228515625	-611.0974731445314	-440.8007812500001	1754.794677734375	-689.3615722656251	-272.3274536132813	1818.81298828125	-752.4017333984376	-449.5381469726564	1594.858520507813	-702.8847045898439	-449.9419860839845	1288.801025390625	-693.7788085937501	-290.5842895507813	1554.48974609375	-688.4879760742189	-301.7382812500001	1606.349365234375	-843.278747558594	-157.7906951904297	1523.70263671875	-965.2443847656252	-128.7498626708985	1560.406372070313	-946.2971801757815	-88.13217926025392	1522.19921875	-968.2478027343752	-10.75695514678955	1522.491088867188	-961.5783691406252	-7.247780323028566	1465.682006835938	-928.5778808593752	259.9883117675782	1550.67529296875	-928.9739990234377	354.4097595214844	1546.111694335938	-849.1322021484377	-318.7418823242188	1601.668701171875	-533.3966674804689	-164.0319366455078	1504.637084960938	-424.1625366210939	-138.7501983642578	1542.771850585938	-445.6764526367189	-94.6750946044922	1510.497436523438	-423.7245483398439	-27.52183532714844	1499.570190429688	-429.7775268554689	-20.72253608703614	1443.066162109375	-481.3451232910157	241.9245605468751	1526.728759765625	-517.4376831054689	242.9909362792969	1537.825927734375	-436.276092529297	336.1256103515626	1545.943237304688	-504.2969970703126	-280.1215515136719	1107.459106445313	-852.7381591796877	-252.8130340576172	1079.40283203125	-614.3706665039064	-459.1934509277345	1167.126098632813	-693.3810424804689	-470.795135498047	1138.017456054688	-722.6519165039064	-457.0786743164064	1132.5419921875	-667.1514282226564	-248.7940673828126	852.801208496094	-940.4126586914065	-195.9022216796876	786.6136474609377	-935.5421142578127	-156.6698150634766	796.846374511719	-904.6541748046877	-205.5306701660157	727.8055419921876	-934.168151855469	-167.9625701904297	634.9127197265626	-929.5830688476565	-160.0940551757813	616.4101562500001	-803.6450805664065	-69.38385009765626	525.7153930664064	-895.1630859375002	-96.431510925293	479.8593139648439	-961.345397949219	-60.4957618713379	482.6735229492189	-933.3230590820315	-29.2188892364502	406.1480102539064	-915.1074829101565	-11.1288366317749	203.3968200683594	-954.226257324219	3.243388891220094	214.3688201904297	-862.1898193359377	-60.94981002807619	146.9597320556641	-909.361267089844	153.1764831542969	193.6755828857422	-878.030212402344	159.9610137939453	204.3325653076172	-922.9433593750002	122.7554626464844	176.7571868896485	-980.9300537109377	-352.9689025878907	863.9712524414065	-558.7651367187501	-315.0851440429688	809.8926391601565	-562.7902221679689	-282.3646240234376	810.9483032226565	-564.9717407226564	-341.1203002929688	732.5342407226564	-583.1370239257814	-332.8502502441407	552.8748779296876	-614.5231933593751	-302.0563659667969	549.8068237304689	-749.0426635742189	-330.5911865234376	273.2061767578126	-656.0628051757814	-295.2295837402344	268.0274658203126	-688.6374511718751	-308.8040466308594	226.3601226806641	-727.3582763671876	-372.0959777832032	119.0447158813477	-694.2701416015626	-342.2897338867188	144.0980987548828	-781.1365356445315	-438.1539306640626	102.7350311279297	-756.9784545898439	-229.1905822753907	58.86915969848634	-771.2666015625002	-221.7102508544922	59.42792129516603	-718.5795898437501	-271.3185424804688	28.77828788757325	-666.2035522460939	nan	nan	nan	nan	nan	nan	
3	0.01	-288.6184997558594	1810.32568359375	-611.1478271484376	-441.0247192382814	1754.71484375	-689.4741821289064	-272.5960083007813	1818.744750976563	-752.4754638671876	-449.7007446289064	1594.757568359375	-702.9444580078126	-449.9038391113282	1288.709350585938	-693.7625122070314	-290.7708129882813	1554.510620117188	-688.5908813476564	-301.8300781250001	1606.294555664063	-843.366638183594	-158.0964050292969	1523.6142578125	-965.250183105469	-128.9569549560547	1560.37060546875	-946.3636474609377	-88.27342987060548	1522.197509765625	-968.2854003906252	-10.89112091064453	1522.474243164063	-961.598083496094	-7.339894294738771	1465.725952148438	-928.5835571289065	259.8052368164063	1550.757690429688	-928.9568481445315	354.2541503906251	1546.28125	-849.0959472656252	-318.8784790039063	1601.664672851563	-533.4351806640626	-164.2210845947266	1504.561889648438	-424.1145019531251	-139.021469116211	1542.755737304688	-445.6051025390626	-94.87447357177736	1510.410400390625	-423.7579956054689	-27.6916618347168	1499.50830078125	-429.7745056152345	-20.83709335327149	1443.033447265625	-481.3898925781251	241.7799224853516	1526.780151367188	-517.2069702148439	242.8942565917969	1537.829223632813	-436.1181945800782	335.9832763671876	1545.9052734375	-504.0744934082032	-281.6154785156251	1106.517333984375	-851.7363891601565	-252.6985321044922	1079.415649414063	-614.2982177734376	-459.0805664062501	1167.04541015625	-693.3348388671876	-470.2347717285157	1137.970825195313	-722.7902221679689	-457.1814270019532	1132.335327148438	-666.9387817382814	-248.3982086181641	852.7939453125002	-940.3603515625002	-195.4637908935547	786.686706542969	-935.4970703125002	-156.2588195800782	796.921813964844	-904.6836547851565	-205.2123565673829	727.8519287109376	-934.0693359375002	-167.4055633544922	634.9586181640626	-929.4371337890627	-159.4728088378907	616.7477416992189	-803.5673828125002	-68.68857574462892	526.1936035156251	-895.075622558594	-95.77601623535158	480.112030029297	-961.218444824219	-60.01304626464845	482.7820434570314	-933.131042480469	-28.3464527130127	406.4741210937501	-915.0175781250002	-9.955400466918947	204.1375122070313	-953.9538574218752	4.114930152893067	214.6213989257813	-861.9901123046877	-60.107234954834	147.1689453125	-908.9732666015627	154.0135803222657	194.0577697753907	-877.8445434570315	161.1010437011719	204.745834350586	-922.9259033203127	123.4969253540039	178.291732788086	-981.1781005859377	-352.6306152343751	863.9780883789065	-558.7979125976564	-314.7816467285157	809.8834228515627	-562.8871459960939	-282.2309875488282	810.953308105469	-565.0099487304689	-340.9176330566407	732.5056762695314	-583.1878051757814	-332.7479248046876	552.8956909179689	-614.5781250000001	-301.9026489257813	549.8246459960939	-749.0949096679689	-330.4180908203126	273.1789550781251	-656.2265014648439	-295.1959533691407	268.0308532714844	-688.7214355468751	-308.8447570800782	226.3226928710938	-727.4821777343751	-372.0999450683594	119.0762176513672	-694.3615112304689	-342.2651367187501	144.0993804931641	-781.2286376953127	-438.1746826171876	102.7430877685547	-756.9934692382814	-229.1135253906251	58.84457015991212	-771.305603027344	-221.7076721191407	59.38801956176759	-718.6690063476564	-271.3052673339844	28.77918815612794	-666.2671508789064	nan	nan	nan	nan	nan	nan	
4	0.015	-289.0151062011719	1810.305541992188	-611.1260375976564	-441.1412048339845	1754.688354492188	-689.5637817382814	-272.7525329589844	1818.7578125	-752.5795288085939	-449.857391357422	1594.655029296875	-703.0343627929689	-449.8301696777345	1288.5986328125	-693.7504272460939	-290.8816223144532	1554.464233398438	-688.6719970703126	-301.9353027343751	1606.25634765625	-843.4739379882815	-158.1624298095703	1523.588256835938	-965.3198242187502	-129.0831756591797	1560.340454101563	-946.4161376953127	-88.38353729248048	1522.154296875	-968.3140258789065	-11.07192707061768	1522.503784179688	-961.5917968750002	-7.371307373046877	1465.777221679688	-928.698425292969	259.7670898437501	1550.881591796875	-928.9362792968752	354.1505432128907	1546.469482421875	-848.9961547851565	-319.1695556640626	1601.651733398438	-533.4457397460939	-164.3543701171875	1504.478515625	-424.1416625976564	-139.2999420166016	1542.715698242188	-445.5579833984376	-95.00347137451173	1510.417846679688	-423.7443847656251	-27.82996559143067	1499.516845703125	-429.7944946289064	-21.0472412109375	1443.076171875	-481.3682556152345	241.6150817871094	1526.84521484375	-517.0689086914064	242.4089965820313	1537.768798828125	-435.9212341308595	335.8207397460938	1545.886840820313	-503.8956604003907	-279.9879455566407	1107.470703125	-852.7639770507815	-252.5036621093751	1079.425903320313	-614.2827758789064	-459.0206909179689	1166.9697265625	-693.2725830078126	-470.1430053710939	1137.872436523438	-722.7360229492189	-456.999237060547	1132.224975585938	-666.8917236328126	-248.1105651855469	852.8033447265627	-940.2779541015627	-195.0760803222657	786.7625732421877	-935.4983520507815	-155.9370880126953	796.9869384765627	-904.7186279296877	-204.7199096679688	727.8718872070314	-933.966247558594	-166.9800415039063	635.0858154296876	-929.3345947265627	-158.9037475585938	616.9597778320314	-803.459167480469	-68.16490936279298	526.2796020507814	-894.9097290039065	-94.57242584228517	479.5347290039064	-960.8911132812502	-58.9838333129883	483.8638305664064	-933.467956542969	-27.80956268310548	406.6508178710939	-914.912292480469	-8.618922233581545	204.7610168457032	-953.8266601562502	5.244505405426026	214.7938995361329	-861.852722167969	-59.35488891601564	147.4723052978516	-908.7509765625002	155.2787475585938	194.5124664306641	-877.851257324219	161.9623260498047	205.0735321044922	-922.8032226562502	124.3564682006836	178.564682006836	-981.0334472656252	-352.2275695800782	863.911071777344	-558.8739013671876	-314.5062561035157	809.865417480469	-563.0037231445314	-282.0195312500001	810.9551391601565	-565.0870971679689	-340.8034973144532	732.4759521484376	-583.1843872070314	-332.6790161132813	552.8936157226564	-614.6320800781251	-301.9055786132813	549.8419799804689	-749.1801757812501	-330.3495483398438	273.1752624511719	-656.3124389648439	-295.1804199218751	267.9914245605469	-688.8436889648439	-308.8354187011719	226.3167724609376	-727.5631103515626	-372.0784301757813	119.0894393920899	-694.4130859375001	-342.2693176269532	144.1310272216797	-781.3120117187502	-438.163299560547	102.7595367431641	-757.0196533203126	-229.0513458251954	57.8744354248047	-771.599304199219	-221.6729888916016	59.48308563232423	-718.6787719726564	-271.2514343261719	28.88400650024415	-666.3487548828126	nan	nan	nan	nan	nan	nan	
